<mxfile host="app.diagrams.net" modified="2024-01-09T06:21:39.019Z" agent="Mozilla/5.0 (Windows NT 10.0; Win64; x64) AppleWebKit/537.36 (KHTML, like Gecko) Chrome/120.0.0.0 Safari/537.36" etag="HBKyiG-DKsFeKbN6XlFQ" version="22.1.17" type="device">
  <diagram name="Page-1" id="oVl5V7rxxSPNIg5Ap4ja">
    <mxGraphModel dx="1434" dy="780" grid="1" gridSize="10" guides="1" tooltips="1" connect="1" arrows="1" fold="1" page="1" pageScale="1" pageWidth="827" pageHeight="1169" math="0" shadow="0">
      <root>
        <mxCell id="0" />
        <mxCell id="1" parent="0" />
        <mxCell id="IuiSjNFsWHFbRyrhFPk0-1" value="БД" style="rounded=0;whiteSpace=wrap;html=1;" vertex="1" parent="1">
          <mxGeometry x="530" y="310" width="120" height="60" as="geometry" />
        </mxCell>
        <mxCell id="IuiSjNFsWHFbRyrhFPk0-2" value="Интерфейс&amp;nbsp;&lt;br&gt;приложения" style="rounded=0;whiteSpace=wrap;html=1;" vertex="1" parent="1">
          <mxGeometry x="40" y="310" width="120" height="60" as="geometry" />
        </mxCell>
        <mxCell id="IuiSjNFsWHFbRyrhFPk0-3" value="Логика &lt;br&gt;приложения" style="rounded=0;whiteSpace=wrap;html=1;" vertex="1" parent="1">
          <mxGeometry x="290" y="310" width="120" height="60" as="geometry" />
        </mxCell>
        <mxCell id="IuiSjNFsWHFbRyrhFPk0-4" value="" style="whiteSpace=wrap;html=1;aspect=fixed;" vertex="1" parent="1">
          <mxGeometry x="150" y="330" width="20" height="20" as="geometry" />
        </mxCell>
        <mxCell id="IuiSjNFsWHFbRyrhFPk0-6" value="" style="whiteSpace=wrap;html=1;aspect=fixed;" vertex="1" parent="1">
          <mxGeometry x="280" y="330" width="20" height="20" as="geometry" />
        </mxCell>
        <mxCell id="IuiSjNFsWHFbRyrhFPk0-7" value="" style="whiteSpace=wrap;html=1;aspect=fixed;" vertex="1" parent="1">
          <mxGeometry x="404" y="330" width="20" height="20" as="geometry" />
        </mxCell>
        <mxCell id="IuiSjNFsWHFbRyrhFPk0-8" value="" style="whiteSpace=wrap;html=1;aspect=fixed;" vertex="1" parent="1">
          <mxGeometry x="520" y="330" width="20" height="20" as="geometry" />
        </mxCell>
        <mxCell id="IuiSjNFsWHFbRyrhFPk0-18" value="" style="rounded=0;orthogonalLoop=1;jettySize=auto;html=1;endArrow=halfCircle;endFill=0;endSize=6;strokeWidth=1;sketch=0;" edge="1" target="IuiSjNFsWHFbRyrhFPk0-20" parent="1" source="IuiSjNFsWHFbRyrhFPk0-4">
          <mxGeometry x="265" y="335" width="10" height="10" as="geometry" />
        </mxCell>
        <mxCell id="IuiSjNFsWHFbRyrhFPk0-19" value="" style="rounded=0;orthogonalLoop=1;jettySize=auto;html=1;endArrow=oval;endFill=0;sketch=0;sourcePerimeterSpacing=0;targetPerimeterSpacing=0;endSize=10;" edge="1" target="IuiSjNFsWHFbRyrhFPk0-20" parent="1">
          <mxGeometry relative="1" as="geometry">
            <mxPoint x="235" y="340" as="sourcePoint" />
            <Array as="points">
              <mxPoint x="280" y="340" />
            </Array>
          </mxGeometry>
        </mxCell>
        <mxCell id="IuiSjNFsWHFbRyrhFPk0-20" value="" style="ellipse;whiteSpace=wrap;html=1;align=center;aspect=fixed;fillColor=none;strokeColor=none;resizable=0;perimeter=centerPerimeter;rotatable=0;allowArrows=0;points=[];outlineConnect=1;" vertex="1" parent="1">
          <mxGeometry x="250" y="335" width="10" height="10" as="geometry" />
        </mxCell>
        <mxCell id="IuiSjNFsWHFbRyrhFPk0-32" value="" style="rounded=0;orthogonalLoop=1;jettySize=auto;html=1;endArrow=halfCircle;endFill=0;endSize=6;strokeWidth=1;sketch=0;exitX=0;exitY=0.5;exitDx=0;exitDy=0;" edge="1" target="IuiSjNFsWHFbRyrhFPk0-34" parent="1" source="IuiSjNFsWHFbRyrhFPk0-8">
          <mxGeometry relative="1" as="geometry">
            <mxPoint x="464" y="340" as="sourcePoint" />
          </mxGeometry>
        </mxCell>
        <mxCell id="IuiSjNFsWHFbRyrhFPk0-33" value="" style="rounded=0;orthogonalLoop=1;jettySize=auto;html=1;endArrow=oval;endFill=0;sketch=0;sourcePerimeterSpacing=0;targetPerimeterSpacing=0;endSize=10;" edge="1" target="IuiSjNFsWHFbRyrhFPk0-34" parent="1">
          <mxGeometry relative="1" as="geometry">
            <mxPoint x="424" y="340" as="sourcePoint" />
          </mxGeometry>
        </mxCell>
        <mxCell id="IuiSjNFsWHFbRyrhFPk0-34" value="" style="ellipse;whiteSpace=wrap;html=1;align=center;aspect=fixed;fillColor=none;strokeColor=none;resizable=0;perimeter=centerPerimeter;rotatable=0;allowArrows=0;points=[];outlineConnect=1;" vertex="1" parent="1">
          <mxGeometry x="439" y="335" width="10" height="10" as="geometry" />
        </mxCell>
        <mxCell id="IuiSjNFsWHFbRyrhFPk0-35" value="Информационная система учёта продаж интернет-магазина" style="text;html=1;strokeColor=none;fillColor=none;align=center;verticalAlign=middle;whiteSpace=wrap;rounded=0;" vertex="1" parent="1">
          <mxGeometry x="190" y="250" width="340" height="60" as="geometry" />
        </mxCell>
      </root>
    </mxGraphModel>
  </diagram>
</mxfile>
